{"title":"Fidlar - 2016-06-10 Bonnaroo Festival 720p","uid":15048947,"size":1217208376,"categoryP":"video","categoryS":"music_videos","magnet":"?xt=urn:btih:3be7a631c78759f34e46a83abb45d38c1a138cd8&amp;dn=Fidlar+-+2016-06-10+Bonnaroo+Festival+720p&amp;tr=udp%3A%2F%2Ftracker.leechers-paradise.org%3A6969&amp;tr=udp%3A%2F%2Fzer0day.ch%3A1337&amp;tr=udp%3A%2F%2Fopen.demonii.com%3A1337&amp;tr=udp%3A%2F%2Ftracker.coppersurfer.tk%3A6969&amp;tr=udp%3A%2F%2Fexodus.desync.com%3A6969","seeders":3,"leechers":2,"uploader":"GRNS3","files":3,"time":1466653483,"description":"Here is a nice webcast. Check my account for more Bonnaroo webcasts.\r\n\r\nPlease enjoy, share with friends and please seed :)\r\n\r\nFIDLAR\r\nBonnaroo Music &amp; Arts Festival\r\nGreat Stage Park\r\nManchester, Tennessee\r\nJune 10, 2016\r\n\r\nLineage: LIVE Webcast -&gt; FFMPEG -&gt; .ts\r\nVideo: 1280x720 16:9 2340 Kbps 30.00 fps\r\nAudio: AAC 160 Kbps 48.0 KHz stereo\r\n\r\nSetlist: UNKNOWN\r\n\r\nGeneral\r\nID                                       : 1 (0x1)\r\nComplete name                            : FIDLAR - 2016-06-10 Bonnaroo, Manchester, TN, USA Complete Webcast [720p].ts\r\nFormat                                   : MPEG-TS\r\nFile size                                : 1.13 GiB\r\nDuration                                 : 59mn 25s\r\nOverall bit rate mode                    : Variable\r\nOverall bit rate                         : 2 731 Kbps\r\n\r\nVideo\r\nID                                       : 256 (0x100)\r\nMenu ID                                  : 1 (0x1)\r\nFormat                                   : AVC\r\nFormat/Info                              : Advanced Video Codec\r\nFormat profile                           :   \r\nFormat settings, CABAC                   : Yes\r\nFormat settings, ReFrames                : 4 frames\r\nCodec ID                                 : 27\r\nDuration                                 : 59mn 25s\r\nBit rate mode                            : Constant\r\nBit rate                                 : 2 340 Kbps\r\nWidth                                    : 1 280 pixels\r\nHeight                                   : 720 pixels\r\nDisplay aspect ratio                     : 16:9\r\nFrame rate                               : 30.000 fps\r\nColor space                              : YUV\r\nChroma subsampling                       : 4:2:0\r\nBit depth                                : 8 bits\r\nScan type                                : Progressive\r\nBits/(Pixel*Frame)                       : 0.085\r\nStream size                              : 1.01 GiB (89%)\r\n\r\nAudio\r\nID                                       : 257 (0x101)\r\nMenu ID                                  : 1 (0x1)\r\nFormat                                   : AAC\r\nFormat/Info                              : Advanced Audio Codec\r\nFormat version                           : Version 4\r\nFormat profile                           : LC\r\nMuxing mode                              : ADTS\r\nCodec ID                                 : 15\r\nDuration                                 : 59mn 25s\r\nBit rate mode                            : Variable\r\nBit rate                                 : 157 Kbps\r\nChannel(s)                               : 2 channels\r\nChannel positions                        : Front: L R\r\nSampling rate                            : 48.0 KHz\r\nCompression mode                         : Lossy\r\nDelay relative to video                  : -973ms\r\nStream size                              : 66.8 MiB (6%)\r\n\r\nMenu\r\nID                                       : 4096 (0x1000)\r\nMenu ID                                  : 1 (0x1)\r\nDuration                                 : 59mn 25s\r\nList                                     : 256 (0x100) (AVC) / 257 (0x101) (AAC)\r\nService name                             : Service01\r\nService provider                         : FFmpeg\r\nService type                             : digital television","torrent":{"xt":"urn:btih:3be7a631c78759f34e46a83abb45d38c1a138cd8","amp;dn":"Fidlar+-+2016-06-10+Bonnaroo+Festival+720p","amp;tr":["udp%3A%2F%2Ftracker.leechers-paradise.org%3A6969","udp%3A%2F%2Fzer0day.ch%3A1337","udp%3A%2F%2Fopen.demonii.com%3A1337","udp%3A%2F%2Ftracker.coppersurfer.tk%3A6969","udp%3A%2F%2Fexodus.desync.com%3A6969"],"infoHash":"3be7a631c78759f34e46a83abb45d38c1a138cd8","infoHashBuffer":{"type":"Buffer","data":[59,231,166,49,199,135,89,243,78,70,168,58,187,69,211,140,26,19,140,216]},"announce":[],"urlList":[]}}